# xmcd CD database file
#
# Track frame offsets:
#	150
#	9474
#	31210
#	52101
#	67577
#	85933
#	101409
#	126597
#	147833
#	170658
#	191189
#	203936
#	223147
#	241797
#	263266
#
# Disc length: 3572 seconds
#
# Revision: 0
# Processed by: cddbd v1.5.2PL0 Copyright (c) Steve Scherf et al.
# Submitted via: CDex 1.51
#
DISCID=d20df20f
DTITLE=Glashaus - Glashaus
DYEAR=2003
DGENRE=Blues
TTITLE0=Glashaus - 01 - Weckruf
TTITLE1=Glashaus - 02 - Trost
TTITLE2=Glashaus - 03 - Solange
TTITLE3=Glashaus - 04 - Was immer es ist
TTITLE4=Glashaus - 05 - Dann bin Ich das
TTITLE5=Glashaus - 06 - Liebst du mich
TTITLE6=Glashaus - 07 - Wenn Das Liebe Ist
TTITLE7=Glashaus - 08 - Dein Vater Kommt
TTITLE8=Glashaus - 09 - Fliegen
TTITLE9=Glashaus - 10 - So anders
TTITLE10=Glashaus - 11 - Flieht aus der Mitte Babylons
TTITLE11=Glashaus - 12 - Nur Du
TTITLE12=Glashaus - 13 - Wir Sind Eins
TTITLE13=Glashaus - 14 - was immer jetzt geschieht
TTITLE14=Glashaus - 15 - Bis dann
EXTD=YEAR: 2003
EXTT0=
EXTT1=
EXTT2=
EXTT3=
EXTT4=
EXTT5=
EXTT6=
EXTT7=
EXTT8=
EXTT9=
EXTT10=
EXTT11=
EXTT12=
EXTT13=
EXTT14=
PLAYORDER=
